<?xml version="1.0" encoding="UTF-8"?>
<svg id="OBJECTS" xmlns="http://www.w3.org/2000/svg" xmlns:xlink="http://www.w3.org/1999/xlink" viewBox="0 0 750 500">
  <defs>
    <style>
      .cls-1 {
        stroke: url(#linear-gradient-2);
      }

      .cls-1, .cls-2, .cls-3, .cls-4, .cls-5, .cls-6, .cls-7, .cls-8, .cls-9, .cls-10, .cls-11, .cls-12, .cls-13, .cls-14, .cls-15, .cls-16, .cls-17, .cls-18, .cls-19, .cls-20, .cls-21, .cls-22, .cls-23, .cls-24, .cls-25, .cls-26, .cls-27, .cls-28, .cls-29, .cls-30, .cls-31, .cls-32, .cls-33, .cls-34, .cls-35, .cls-36, .cls-37, .cls-38, .cls-39, .cls-40, .cls-41, .cls-42, .cls-43, .cls-44 {
        fill: none;
      }

      .cls-1, .cls-2, .cls-3, .cls-4, .cls-5, .cls-6, .cls-7, .cls-8, .cls-9, .cls-10, .cls-11, .cls-12, .cls-13, .cls-14, .cls-15, .cls-16, .cls-17, .cls-18, .cls-19, .cls-20, .cls-21, .cls-22, .cls-23, .cls-24, .cls-25, .cls-26, .cls-27, .cls-28, .cls-29, .cls-30, .cls-32, .cls-33, .cls-34, .cls-35, .cls-36, .cls-37, .cls-38, .cls-39, .cls-40, .cls-41, .cls-42, .cls-43, .cls-44 {
        stroke-miterlimit: 10;
      }

      .cls-2 {
        stroke: url(#linear-gradient-3);
      }

      .cls-3 {
        stroke: url(#linear-gradient-28);
      }

      .cls-4 {
        stroke: url(#linear-gradient-9);
      }

      .cls-5 {
        stroke: url(#linear-gradient-37);
      }

      .cls-6 {
        stroke: url(#linear-gradient-22);
      }

      .cls-7 {
        stroke: url(#linear-gradient-19);
      }

      .cls-8 {
        stroke: #fff;
      }

      .cls-9 {
        stroke: url(#linear-gradient-26);
      }

      .cls-10 {
        stroke: url(#linear-gradient-4);
      }

      .cls-11 {
        stroke: url(#linear-gradient-6);
      }

      .cls-12 {
        stroke: url(#linear-gradient-18);
      }

      .cls-13 {
        stroke: url(#linear-gradient-13);
      }

      .cls-14 {
        stroke: url(#linear-gradient-29);
      }

      .cls-15 {
        stroke: url(#linear-gradient-16);
      }

      .cls-16 {
        stroke: url(#linear-gradient-17);
      }

      .cls-17 {
        stroke: url(#linear-gradient-30);
      }

      .cls-18 {
        stroke: url(#linear-gradient-7);
      }

      .cls-19 {
        stroke: url(#linear-gradient-39);
      }

      .cls-20 {
        stroke: url(#linear-gradient-21);
      }

      .cls-21 {
        stroke: url(#linear-gradient-12);
      }

      .cls-22 {
        stroke: url(#linear-gradient-5);
      }

      .cls-23 {
        stroke: url(#linear-gradient-38);
      }

      .cls-24 {
        stroke: url(#linear-gradient-32);
      }

      .cls-25 {
        stroke: url(#linear-gradient-36);
      }

      .cls-45 {
        clip-path: url(#clippath);
      }

      .cls-26 {
        stroke: url(#linear-gradient-20);
      }

      .cls-27 {
        stroke: url(#linear-gradient-24);
      }

      .cls-28 {
        stroke: url(#linear-gradient-33);
      }

      .cls-29 {
        stroke: url(#linear-gradient-31);
      }

      .cls-30 {
        stroke: url(#linear-gradient);
      }

      .cls-32 {
        stroke: url(#linear-gradient-25);
      }

      .cls-33 {
        stroke: url(#linear-gradient-35);
      }

      .cls-34 {
        stroke: url(#linear-gradient-27);
      }

      .cls-35 {
        stroke: url(#linear-gradient-23);
      }

      .cls-36 {
        stroke: url(#linear-gradient-14);
      }

      .cls-37 {
        stroke: url(#linear-gradient-41);
      }

      .cls-38 {
        stroke: url(#linear-gradient-42);
      }

      .cls-39 {
        stroke: url(#linear-gradient-34);
      }

      .cls-40 {
        stroke: url(#linear-gradient-11);
      }

      .cls-41 {
        stroke: url(#linear-gradient-8);
      }

      .cls-42 {
        stroke: url(#linear-gradient-40);
      }

      .cls-43 {
        stroke: url(#linear-gradient-10);
      }

      .cls-44 {
        stroke: url(#linear-gradient-15);
      }
    </style>
    <clipPath id="clippath">
      <rect class="cls-31" width="750" height="500"/>
    </clipPath>
    <linearGradient id="linear-gradient" x1="169.08" y1="323.51" x2="1068.87" y2="323.51" gradientTransform="translate(-299.5 135.02) rotate(-7.37)" gradientUnits="userSpaceOnUse">
      <stop offset="0" stop-color="#9d9d9d"/>
      <stop offset=".51" stop-color="#fff"/>
      <stop offset="1" stop-color="#9d9d9d"/>
    </linearGradient>
    <linearGradient id="linear-gradient-2" x1="171.28" y1="325.89" x2="1067.62" y2="325.89" gradientTransform="translate(-299.5 135.02) rotate(-7.37)" gradientUnits="userSpaceOnUse">
      <stop offset="0" stop-color="#9d9d9d"/>
      <stop offset=".51" stop-color="#fdfdfd"/>
      <stop offset="1" stop-color="#a2a2a2"/>
    </linearGradient>
    <linearGradient id="linear-gradient-3" x1="173.48" y1="328.31" x2="1066.37" y2="328.31" gradientTransform="translate(-299.5 135.02) rotate(-7.37)" gradientUnits="userSpaceOnUse">
      <stop offset="0" stop-color="#9d9d9d"/>
      <stop offset=".51" stop-color="#fafafa"/>
      <stop offset="1" stop-color="#a6a6a6"/>
    </linearGradient>
    <linearGradient id="linear-gradient-4" x1="175.68" y1="330.78" x2="1065.12" y2="330.78" gradientTransform="translate(-299.5 135.02) rotate(-7.37)" gradientUnits="userSpaceOnUse">
      <stop offset="0" stop-color="#9d9d9d"/>
      <stop offset=".51" stop-color="#f8f8f8"/>
      <stop offset="1" stop-color="#ababab"/>
    </linearGradient>
    <linearGradient id="linear-gradient-5" x1="177.88" y1="333.3" x2="1063.87" y2="333.3" gradientTransform="translate(-299.5 135.02) rotate(-7.37)" gradientUnits="userSpaceOnUse">
      <stop offset="0" stop-color="#9d9d9d"/>
      <stop offset=".51" stop-color="#f6f6f6"/>
      <stop offset="1" stop-color="#b0b0b0"/>
    </linearGradient>
    <linearGradient id="linear-gradient-6" x1="180.08" y1="335.87" x2="1062.63" y2="335.87" gradientTransform="translate(-299.5 135.02) rotate(-7.37)" gradientUnits="userSpaceOnUse">
      <stop offset="0" stop-color="#9d9d9d"/>
      <stop offset=".51" stop-color="#f4f4f4"/>
      <stop offset="1" stop-color="#b4b4b4"/>
    </linearGradient>
    <linearGradient id="linear-gradient-7" x1="182.28" y1="338.49" x2="1061.38" y2="338.49" gradientTransform="translate(-299.5 135.02) rotate(-7.37)" gradientUnits="userSpaceOnUse">
      <stop offset="0" stop-color="#9d9d9d"/>
      <stop offset=".51" stop-color="#f1f1f1"/>
      <stop offset="1" stop-color="#b9b9b9"/>
    </linearGradient>
    <linearGradient id="linear-gradient-8" x1="184.48" y1="341.17" x2="1060.13" y2="341.17" gradientTransform="translate(-299.5 135.02) rotate(-7.37)" gradientUnits="userSpaceOnUse">
      <stop offset="0" stop-color="#9d9d9d"/>
      <stop offset=".51" stop-color="#efefef"/>
      <stop offset="1" stop-color="#bebebe"/>
    </linearGradient>
    <linearGradient id="linear-gradient-9" x1="186.68" y1="343.9" x2="1058.88" y2="343.9" gradientTransform="translate(-299.5 135.02) rotate(-7.37)" gradientUnits="userSpaceOnUse">
      <stop offset="0" stop-color="#9d9d9d"/>
      <stop offset=".51" stop-color="#ededed"/>
      <stop offset="1" stop-color="#c2c2c2"/>
    </linearGradient>
    <linearGradient id="linear-gradient-10" x1="188.88" y1="346.7" x2="1057.63" y2="346.7" gradientTransform="translate(-299.5 135.02) rotate(-7.37)" gradientUnits="userSpaceOnUse">
      <stop offset="0" stop-color="#9d9d9d"/>
      <stop offset=".51" stop-color="#eaeaea"/>
      <stop offset="1" stop-color="#c7c7c7"/>
    </linearGradient>
    <linearGradient id="linear-gradient-11" x1="191.08" y1="349.56" x2="1056.38" y2="349.56" gradientTransform="translate(-299.5 135.02) rotate(-7.37)" gradientUnits="userSpaceOnUse">
      <stop offset="0" stop-color="#9d9d9d"/>
      <stop offset=".51" stop-color="#e8e8e8"/>
      <stop offset="1" stop-color="#ccc"/>
    </linearGradient>
    <linearGradient id="linear-gradient-12" x1="193.28" y1="352.48" x2="1055.13" y2="352.48" gradientTransform="translate(-299.5 135.02) rotate(-7.37)" gradientUnits="userSpaceOnUse">
      <stop offset="0" stop-color="#9d9d9d"/>
      <stop offset=".51" stop-color="#e6e6e6"/>
      <stop offset="1" stop-color="#d0d0d0"/>
    </linearGradient>
    <linearGradient id="linear-gradient-13" x1="195.48" y1="347.46" x2="1053.88" y2="347.46" gradientTransform="translate(-299.5 135.02) rotate(-7.37)" gradientUnits="userSpaceOnUse">
      <stop offset="0" stop-color="#9d9d9d"/>
      <stop offset=".51" stop-color="#e4e4e4"/>
      <stop offset="1" stop-color="#d5d5d5"/>
    </linearGradient>
    <linearGradient id="linear-gradient-14" x1="197.68" y1="341.02" x2="1052.63" y2="341.02" gradientTransform="translate(-299.5 135.02) rotate(-7.37)" gradientUnits="userSpaceOnUse">
      <stop offset="0" stop-color="#9d9d9d"/>
      <stop offset=".51" stop-color="#e1e1e1"/>
      <stop offset="1" stop-color="#dadada"/>
    </linearGradient>
    <linearGradient id="linear-gradient-15" x1="199.89" y1="334.73" x2="1051.39" y2="334.73" gradientTransform="translate(-299.5 135.02) rotate(-7.37)" gradientUnits="userSpaceOnUse">
      <stop offset="0" stop-color="#9d9d9d"/>
      <stop offset=".51" stop-color="#dfdfdf"/>
      <stop offset="1" stop-color="#dedede"/>
    </linearGradient>
    <linearGradient id="linear-gradient-16" x1="202.09" y1="331.7" x2="1050.14" y2="331.7" gradientTransform="translate(-299.5 135.02) rotate(-7.37)" gradientUnits="userSpaceOnUse">
      <stop offset="0" stop-color="#9d9d9d"/>
      <stop offset=".51" stop-color="#ddd"/>
      <stop offset="1" stop-color="#e3e3e3"/>
    </linearGradient>
    <linearGradient id="linear-gradient-17" x1="204.29" y1="333.11" x2="1048.89" y2="333.11" gradientTransform="translate(-299.5 135.02) rotate(-7.37)" gradientUnits="userSpaceOnUse">
      <stop offset="0" stop-color="#9d9d9d"/>
      <stop offset=".51" stop-color="#dadada"/>
      <stop offset="1" stop-color="#e8e8e8"/>
    </linearGradient>
    <linearGradient id="linear-gradient-18" x1="206.5" y1="334.51" x2="1047.64" y2="334.51" gradientTransform="translate(-299.5 135.02) rotate(-7.37)" gradientUnits="userSpaceOnUse">
      <stop offset="0" stop-color="#9d9d9d"/>
      <stop offset=".51" stop-color="#d8d8d8"/>
      <stop offset="1" stop-color="#ececec"/>
    </linearGradient>
    <linearGradient id="linear-gradient-19" x1="208.7" y1="335.92" x2="1046.39" y2="335.92" gradientTransform="translate(-299.5 135.02) rotate(-7.37)" gradientUnits="userSpaceOnUse">
      <stop offset="0" stop-color="#9d9d9d"/>
      <stop offset=".51" stop-color="#d6d6d6"/>
      <stop offset="1" stop-color="#f1f1f1"/>
    </linearGradient>
    <linearGradient id="linear-gradient-20" x1="210.91" y1="337.33" x2="1045.14" y2="337.33" gradientTransform="translate(-299.5 135.02) rotate(-7.37)" gradientUnits="userSpaceOnUse">
      <stop offset="0" stop-color="#9d9d9d"/>
      <stop offset=".51" stop-color="#d4d4d4"/>
      <stop offset="1" stop-color="#f6f6f6"/>
    </linearGradient>
    <linearGradient id="linear-gradient-21" x1="213.12" y1="338.73" x2="1043.9" y2="338.73" gradientTransform="translate(-299.5 135.02) rotate(-7.37)" gradientUnits="userSpaceOnUse">
      <stop offset="0" stop-color="#9d9d9d"/>
      <stop offset=".51" stop-color="#d1d1d1"/>
      <stop offset="1" stop-color="#fafafa"/>
    </linearGradient>
    <linearGradient id="linear-gradient-22" x1="215.32" y1="340.14" x2="1042.65" y2="340.14" gradientTransform="translate(-299.5 135.02) rotate(-7.37)" gradientUnits="userSpaceOnUse">
      <stop offset="0" stop-color="#9d9d9d"/>
      <stop offset="1" stop-color="#fff"/>
    </linearGradient>
    <linearGradient id="linear-gradient-23" x1="789.64" y1="4052.26" x2="1689.43" y2="4052.26" gradientTransform="translate(2154.74 3834.36) rotate(172.63)" xlink:href="#linear-gradient"/>
    <linearGradient id="linear-gradient-24" x1="791.84" y1="4054.64" x2="1688.18" y2="4054.64" gradientTransform="translate(2154.74 3834.36) rotate(172.63)" xlink:href="#linear-gradient-2"/>
    <linearGradient id="linear-gradient-25" x1="794.04" y1="4057.06" x2="1686.93" y2="4057.06" gradientTransform="translate(2154.74 3834.36) rotate(172.63)" xlink:href="#linear-gradient-3"/>
    <linearGradient id="linear-gradient-26" x1="796.24" y1="4059.53" x2="1685.68" y2="4059.53" gradientTransform="translate(2154.74 3834.36) rotate(172.63)" xlink:href="#linear-gradient-4"/>
    <linearGradient id="linear-gradient-27" x1="798.44" y1="4062.05" x2="1684.43" y2="4062.05" gradientTransform="translate(2154.74 3834.36) rotate(172.63)" xlink:href="#linear-gradient-5"/>
    <linearGradient id="linear-gradient-28" x1="800.64" y1="4064.62" x2="1683.18" y2="4064.62" gradientTransform="translate(2154.74 3834.36) rotate(172.63)" xlink:href="#linear-gradient-6"/>
    <linearGradient id="linear-gradient-29" x1="802.84" y1="4067.24" x2="1681.93" y2="4067.24" gradientTransform="translate(2154.74 3834.36) rotate(172.63)" xlink:href="#linear-gradient-7"/>
    <linearGradient id="linear-gradient-30" x1="805.04" y1="4069.92" x2="1680.68" y2="4069.92" gradientTransform="translate(2154.74 3834.36) rotate(172.63)" xlink:href="#linear-gradient-8"/>
    <linearGradient id="linear-gradient-31" x1="807.24" y1="4072.65" x2="1679.43" y2="4072.65" gradientTransform="translate(2154.74 3834.36) rotate(172.63)" xlink:href="#linear-gradient-9"/>
    <linearGradient id="linear-gradient-32" x1="809.44" y1="4075.45" x2="1678.18" y2="4075.45" gradientTransform="translate(2154.74 3834.36) rotate(172.63)" xlink:href="#linear-gradient-10"/>
    <linearGradient id="linear-gradient-33" x1="811.64" y1="4078.31" x2="1676.94" y2="4078.31" gradientTransform="translate(2154.74 3834.36) rotate(172.63)" xlink:href="#linear-gradient-11"/>
    <linearGradient id="linear-gradient-34" x1="813.84" y1="4081.23" x2="1675.69" y2="4081.23" gradientTransform="translate(2154.74 3834.36) rotate(172.63)" xlink:href="#linear-gradient-12"/>
    <linearGradient id="linear-gradient-35" x1="816.04" y1="4076.21" x2="1674.44" y2="4076.21" gradientTransform="translate(2154.74 3834.36) rotate(172.63)" xlink:href="#linear-gradient-13"/>
    <linearGradient id="linear-gradient-36" x1="818.24" y1="4069.77" x2="1673.19" y2="4069.77" gradientTransform="translate(2154.74 3834.36) rotate(172.63)" xlink:href="#linear-gradient-14"/>
    <linearGradient id="linear-gradient-37" x1="820.44" y1="4063.48" x2="1671.94" y2="4063.48" gradientTransform="translate(2154.74 3834.36) rotate(172.63)" xlink:href="#linear-gradient-15"/>
    <linearGradient id="linear-gradient-38" x1="827.05" y1="4063.26" x2="1668.2" y2="4063.26" gradientTransform="translate(2154.74 3834.36) rotate(172.63)" xlink:href="#linear-gradient-18"/>
    <linearGradient id="linear-gradient-39" x1="829.26" y1="4064.67" x2="1666.95" y2="4064.67" gradientTransform="translate(2154.74 3834.36) rotate(172.63)" xlink:href="#linear-gradient-19"/>
    <linearGradient id="linear-gradient-40" x1="831.46" y1="4066.08" x2="1665.7" y2="4066.08" gradientTransform="translate(2154.74 3834.36) rotate(172.63)" xlink:href="#linear-gradient-20"/>
    <linearGradient id="linear-gradient-41" x1="833.67" y1="4067.48" x2="1664.45" y2="4067.48" gradientTransform="translate(2154.74 3834.36) rotate(172.63)" xlink:href="#linear-gradient-21"/>
    <linearGradient id="linear-gradient-42" x1="835.88" y1="4068.89" x2="1663.2" y2="4068.89" gradientTransform="translate(2154.74 3834.36) rotate(172.63)" xlink:href="#linear-gradient-22"/>
  </defs>
  <g class="cls-45">
    <g>
      <g>
        <path class="cls-30" d="m-79.85,512.7C305.02,724.51,418.83,67.04,788.29,214.55"/>
        <path class="cls-1" d="m-78.88,503.02C292.65,721.46,425.36,76.71,788.62,226.89"/>
        <path class="cls-2" d="m-77.9,493.34c358.18,225.07,509.78-406.96,866.85-254.12"/>
        <path class="cls-10" d="m-76.92,483.66C267.91,715.36,438.4,96.05,789.28,251.55"/>
        <path class="cls-22" d="m-75.94,473.99C255.55,712.32,444.93,105.72,789.61,263.88"/>
        <path class="cls-11" d="m-74.97,464.31C243.18,709.27,451.45,115.39,789.94,276.22"/>
        <path class="cls-18" d="m-73.99,454.63C230.81,706.22,457.98,125.06,790.27,288.55"/>
        <path class="cls-41" d="m-73.01,444.95C218.44,703.17,464.5,134.74,790.6,300.88"/>
        <path class="cls-4" d="m-72.03,435.27c278.1,264.85,543.06-290.87,862.96-122.06"/>
        <path class="cls-43" d="m-71.06,425.6c264.76,271.48,548.61-271.52,862.31-100.05"/>
        <path class="cls-40" d="m-70.08,415.92c251.41,278.11,554.15-252.17,861.67-78.04"/>
        <path class="cls-21" d="m-69.1,406.24c238.06,284.74,559.7-232.82,861.02-56.03"/>
        <path class="cls-13" d="m-68.12,396.56c224.72,291.37,565.25-213.47,860.37-34.02"/>
        <path class="cls-36" d="m-67.14,386.89c211.37,298,570.79-194.12,859.73-12.01"/>
        <path class="cls-44" d="m-66.17,377.21c198.02,304.63,576.34-174.78,859.08,10"/>
        <path class="cls-15" d="m-65.19,367.53c184.68,311.26,581.89-155.43,858.43,32.01"/>
        <path class="cls-16" d="m-64.21,357.85c171.33,317.9,587.43-136.08,857.78,54.02"/>
        <path class="cls-12" d="m-63.23,348.18c157.98,324.53,592.98-116.73,857.14,76.03"/>
        <path class="cls-7" d="m-62.26,338.5c144.64,331.16,598.53-97.38,856.49,98.04"/>
        <path class="cls-26" d="m-61.28,328.82c131.29,337.79,604.07-78.03,855.84,120.05"/>
        <path class="cls-20" d="m-60.3,319.14c117.94,344.42,609.62-58.68,855.19,142.06"/>
        <path class="cls-6" d="m-59.32,309.46c104.6,351.05,615.17-39.33,854.55,164.07"/>
      </g>
      <g>
        <path class="cls-35" d="m841.29-161.5C456.42-373.31,342.61,284.16-26.85,136.64"/>
        <path class="cls-27" d="m840.32-151.82C468.79-370.26,336.08,274.49-27.18,124.31"/>
        <path class="cls-32" d="m839.34-142.14C481.16-367.21,329.56,264.82-27.51,111.98"/>
        <path class="cls-9" d="m838.36-132.47C493.52-364.17,323.03,255.15-27.84,99.65"/>
        <path class="cls-34" d="m837.38-122.79C505.89-361.12,316.51,245.48-28.17,87.31"/>
        <path class="cls-3" d="m836.4-113.11C518.26-358.07,309.99,235.8-28.5,74.98"/>
        <path class="cls-14" d="m835.43-103.43C530.63-355.02,303.46,226.13-28.83,62.65"/>
        <path class="cls-17" d="m834.45-93.76C543-351.98,296.94,216.46-29.16,50.32"/>
        <path class="cls-29" d="m833.47-84.08C555.37-348.93,290.41,206.79-29.49,37.98"/>
        <path class="cls-24" d="m832.49-74.4C567.74-345.88,283.89,197.12-29.82,25.65"/>
        <path class="cls-28" d="m831.52-64.72C580.11-342.84,277.36,187.45-30.15,13.32"/>
        <path class="cls-39" d="m830.54-55.04C592.48-339.79,270.84,177.78-30.48.99"/>
        <path class="cls-33" d="m829.56-45.37C604.85-336.74,264.31,168.11-30.81-11.35"/>
        <path class="cls-25" d="m828.58-35.69C617.21-333.69,257.79,158.44-31.14-23.68"/>
        <path class="cls-5" d="m827.61-26.01C629.58-330.65,251.27,148.76-31.47-36.01"/>
        <path class="cls-23" d="m824.67,3.02C666.69-321.5,231.69,119.75-32.46-73.01"/>
        <path class="cls-19" d="m823.69,12.7C679.06-318.46,225.17,110.08-32.79-85.34"/>
        <path class="cls-42" d="m822.72,22.38C691.43-315.41,218.64,100.41-33.12-97.67"/>
        <path class="cls-37" d="m821.74,32.06C703.8-312.36,212.12,90.74-33.45-110.01"/>
        <path class="cls-38" d="m820.76,41.73C716.17-309.31,205.59,81.07-33.78-122.34"/>
      </g>
      <g>
        <path class="cls-8" d="m824.61,459.67C439.73,247.86,325.92,905.33-43.53,757.81"/>
        <path class="cls-8" d="m823.63,469.35C452.1,250.91,319.4,895.66-43.86,745.48"/>
        <path class="cls-8" d="m822.65,479.03C464.47,253.96,312.87,885.99-44.19,733.15"/>
        <path class="cls-8" d="m821.68,488.7C476.84,257,306.35,876.32-44.52,720.82"/>
        <path class="cls-8" d="m820.7,498.38C489.21,260.05,299.83,866.65-44.85,708.48"/>
        <path class="cls-8" d="m819.72,508.06C501.58,263.1,293.3,856.97-45.18,696.15"/>
        <path class="cls-8" d="m818.74,517.74c-304.8-251.59-531.97,329.57-864.26,166.08"/>
        <path class="cls-8" d="m817.76,527.42C526.32,269.19,280.25,837.63-45.84,671.49"/>
        <path class="cls-8" d="m816.79,537.09c-278.1-264.85-543.06,290.87-862.96,122.06"/>
        <path class="cls-8" d="m815.81,546.77c-264.76-271.48-548.61,271.52-862.31,100.05"/>
        <path class="cls-8" d="m814.83,556.45c-251.41-278.11-554.15,252.17-861.67,78.04"/>
        <path class="cls-8" d="m813.85,566.13c-238.06-284.74-559.7,232.82-861.02,56.03"/>
        <path class="cls-8" d="m812.88,575.8c-224.72-291.37-565.25,213.47-860.37,34.02"/>
        <path class="cls-8" d="m811.9,585.48c-211.37-298-570.79,194.12-859.73,12.01"/>
        <path class="cls-8" d="m810.92,595.16c-198.02-304.63-576.34,174.78-859.08-10"/>
        <path class="cls-8" d="m809.94,604.84c-184.68-311.26-581.89,155.43-858.43-32.01"/>
        <path class="cls-8" d="m808.97,614.51c-171.33-317.9-587.43,136.08-857.78-54.02"/>
        <path class="cls-8" d="m804.08,662.9c-104.6-351.05-615.17,39.33-854.55-164.07"/>
      </g>
    </g>
  </g>
</svg>